<?xml version="1.0" standalone="no"?>
<!DOCTYPE svg PUBLIC "-//W3C//DTD SVG 20010904//EN"
 "http://www.w3.org/TR/2001/REC-SVG-20010904/DTD/svg10.dtd">
<svg version="1.0" xmlns="http://www.w3.org/2000/svg"
 width="1256.000000pt" height="1628.000000pt" viewBox="0 0 1256.000000 1628.000000"
 preserveAspectRatio="xMidYMid meet">
<metadata>
Created by potrace 1.15, written by Peter Selinger 2001-2017
</metadata>
<g transform="translate(0.000000,1628.000000) scale(0.100000,-0.100000)"
fill="#000000" stroke="none">
<path d="M6056 14513 c-1 -1 -45 -3 -98 -4 -78 -1 -95 -4 -91 -15 4 -10 -5
-14 -33 -15 -22 -1 -73 -3 -114 -5 -41 -1 -112 -8 -156 -14 -45 -7 -90 -10
-100 -9 -42 6 -226 -35 -303 -67 -20 -9 -43 -17 -51 -19 -8 -2 -42 -15 -75
-29 -33 -14 -66 -26 -72 -26 -7 0 -13 -4 -13 -9 0 -5 -11 -12 -25 -15 -21 -5
-152 -77 -226 -125 -79 -51 -147 -99 -167 -118 -12 -13 -26 -23 -32 -23 -5 0
-10 -6 -10 -12 0 -7 -34 -38 -76 -68 -42 -30 -106 -82 -141 -115 -36 -33 -77
-69 -92 -80 -14 -11 -62 -58 -106 -105 -44 -47 -94 -97 -112 -110 -17 -14 -38
-36 -46 -50 -9 -14 -33 -43 -56 -65 -32 -32 -39 -45 -34 -64 4 -17 2 -22 -6
-17 -15 9 -14 -7 1 -22 9 -9 9 -18 -1 -39 -10 -22 -14 -24 -22 -12 -7 12 -9
11 -9 -2 0 -9 -6 -22 -14 -28 -7 -6 -16 -24 -19 -40 -3 -15 -22 -47 -41 -70
-29 -35 -86 -137 -86 -155 0 -3 7 -3 16 1 14 5 14 3 3 -15 -7 -11 -16 -19 -20
-16 -13 7 -26 -27 -33 -84 -6 -45 -44 -144 -77 -202 -14 -23 -16 -30 -28 -90
-5 -30 -18 -93 -27 -140 -9 -47 -17 -115 -18 -152 l-1 -67 23 21 22 21 0 -54
c0 -30 -5 -72 -11 -94 -6 -22 -13 -51 -15 -65 -3 -14 -10 -35 -16 -47 -16 -32
0 -43 22 -15 16 20 19 20 22 5 2 -10 -2 -35 -9 -55 -7 -21 -10 -50 -7 -67 3
-16 7 -48 8 -72 1 -50 21 -63 31 -20 9 42 25 39 25 -4 0 -30 5 -45 27 -84 2
-2 10 2 19 10 14 11 17 10 25 -4 6 -9 16 -17 23 -17 12 0 14 -18 16 -107 0
-28 3 -32 27 -30 26 2 27 1 24 -50 -1 -28 2 -61 8 -72 12 -21 4 -54 -10 -45
-5 3 -6 -2 -3 -10 3 -9 14 -16 24 -16 19 0 36 -43 20 -48 -16 -6 -11 -20 9
-27 15 -5 17 -13 13 -55 -3 -36 -1 -50 8 -50 7 0 23 -11 35 -24 13 -14 26 -22
29 -19 3 4 6 -13 6 -36 0 -23 9 -60 20 -83 11 -22 17 -45 14 -50 -8 -13 -8
-127 0 -135 3 -4 12 -1 18 5 15 15 48 16 48 2 0 -5 -9 -15 -20 -22 -21 -14
-27 -38 -9 -38 5 0 7 -5 3 -11 -7 -12 12 -54 34 -78 8 -8 12 -25 9 -38 -3 -14
1 -23 9 -23 9 0 11 -11 8 -37 -4 -29 -3 -34 5 -23 8 12 12 9 17 -17 4 -20 13
-33 21 -33 10 0 13 -6 9 -16 -3 -9 -6 -18 -6 -20 0 -3 -22 -2 -50 2 -70 9
-104 -7 -130 -64 -29 -60 -34 -108 -34 -282 0 -112 4 -153 17 -180 9 -19 32
-80 52 -135 20 -55 47 -129 61 -165 13 -36 33 -94 45 -129 11 -36 42 -108 68
-160 26 -53 51 -109 55 -125 4 -15 15 -30 26 -33 13 -3 19 -13 17 -27 -1 -15
3 -20 16 -18 39 7 76 -54 54 -88 -6 -11 -17 -20 -24 -20 -7 0 -13 -5 -13 -10
0 -17 51 -33 112 -36 56 -3 123 -35 123 -59 0 -21 30 -105 37 -105 4 0 8 -12
8 -27 0 -39 11 -74 20 -68 4 3 11 -6 14 -20 4 -14 12 -25 19 -25 8 0 7 -3 -2
-9 -11 -7 -12 -17 -4 -43 5 -18 15 -32 21 -31 7 2 12 -5 12 -15 0 -10 6 -24
13 -31 10 -11 9 -12 -2 -6 -20 11 -7 -52 16 -77 9 -10 13 -18 8 -18 -4 0 -2
-7 5 -15 6 -8 9 -18 6 -23 -3 -5 2 -24 12 -43 9 -19 30 -68 46 -109 15 -41 32
-82 37 -90 4 -8 39 -76 77 -150 l69 -135 2 -101 c1 -56 -3 -114 -9 -129 -6
-14 -12 -90 -15 -168 -5 -155 -11 -228 -25 -297 -6 -25 -12 -61 -14 -80 -2
-19 -7 -46 -11 -60 -55 -228 -54 -452 5 -576 17 -36 34 -80 37 -97 3 -18 9
-39 14 -48 4 -9 10 -27 13 -40 5 -21 55 -176 77 -234 4 -11 21 -60 39 -110 42
-116 152 -344 183 -377 14 -15 43 -32 66 -38 22 -6 41 -15 41 -20 0 -6 7 -6
18 1 13 8 45 5 132 -14 63 -14 147 -30 185 -37 39 -6 106 -18 150 -25 111 -20
674 -14 788 8 77 15 221 68 307 112 25 12 56 26 70 30 14 4 49 18 79 32 33 15
61 21 74 17 19 -6 20 -5 9 9 -15 18 -2 30 24 20 11 -4 15 -3 10 5 -3 6 -2 13
4 17 5 3 10 2 10 -3 0 -6 9 -8 20 -5 11 3 17 9 14 14 -5 8 0 10 38 13 16 1 63
98 77 160 7 27 23 74 37 105 15 31 42 98 60 149 19 52 39 102 44 112 5 9 21
62 35 116 15 54 35 115 46 136 68 133 100 293 103 508 2 164 -8 252 -44 359
-12 36 -26 92 -31 125 -6 33 -15 66 -20 72 -6 7 -11 25 -12 40 -1 15 -8 29
-16 32 -8 3 -11 0 -7 -6 9 -15 -4 -42 -19 -42 -8 0 -15 12 -17 28 -2 19 -9 28
-25 30 -13 2 -23 8 -23 15 0 8 -3 8 -12 -1 -7 -7 -23 -12 -36 -12 -17 0 -23
-4 -18 -15 3 -8 0 -15 -7 -15 -20 0 -15 39 6 46 11 3 16 12 13 20 -3 8 -2 14
2 14 4 0 12 10 17 23 6 12 17 21 24 19 17 -4 42 18 35 29 -3 5 -11 6 -17 2 -9
-5 -9 -3 -1 8 6 8 14 26 18 42 3 15 13 27 21 27 8 0 17 11 21 24 3 13 17 29
31 35 l25 11 -24 19 c-19 16 -21 22 -10 33 11 11 12 10 7 -4 -5 -13 -2 -18 10
-18 12 0 15 5 9 23 -8 25 -22 37 -46 37 -10 0 -27 9 -38 20 l-20 20 33 1 c29
0 30 1 10 9 -27 11 -31 30 -5 28 30 -3 83 14 79 26 -2 6 -12 11 -23 11 -22 0
-39 32 -26 49 5 6 9 22 10 35 0 13 6 27 12 31 8 5 7 9 -4 13 -9 4 -16 2 -16
-3 0 -6 -5 -10 -10 -10 -7 0 -7 6 0 20 7 12 16 17 27 13 12 -5 15 -2 10 9 -6
17 11 28 41 28 9 0 23 12 30 27 15 33 16 53 2 53 -5 0 -10 -5 -10 -11 0 -6 -6
-9 -12 -7 -14 5 -20 68 -7 68 5 0 9 -7 9 -15 0 -9 6 -12 16 -8 9 3 14 15 12
28 -1 12 3 30 11 39 11 13 11 19 0 32 -11 14 -10 18 10 34 14 9 21 22 17 29
-4 6 -1 11 8 11 14 0 14 3 4 21 -11 17 -10 22 3 29 10 6 15 20 14 35 -2 14 2
25 9 25 6 0 16 8 21 19 6 10 18 33 28 51 19 32 19 32 -7 59 -48 50 -27 92 28
56 22 -15 24 -14 29 5 3 11 1 20 -5 20 -5 0 -16 7 -24 15 -9 8 -23 15 -32 15
-19 0 -52 52 -52 81 0 11 7 22 15 25 26 10 16 27 -12 21 -28 -5 -59 8 -80 33
-11 13 -12 12 -13 -7 0 -23 -33 -48 -50 -38 -17 10 -11 25 9 25 13 0 20 9 24
33 5 37 0 48 -13 27 -7 -12 -12 -12 -22 -2 -6 6 -27 12 -44 12 -36 0 -53 14
-29 24 19 7 19 26 0 26 -8 0 -15 -4 -15 -10 0 -5 -16 -10 -35 -10 -26 0 -33
-3 -29 -15 4 -8 1 -15 -5 -15 -15 0 -14 23 1 38 17 17 -17 50 -61 58 -38 7
-62 30 -54 50 3 7 -6 14 -19 16 -13 2 -22 9 -21 16 2 6 -4 12 -12 12 -8 0 -19
9 -25 20 -8 15 -17 19 -33 15 -16 -5 -18 -4 -8 4 12 8 13 12 1 26 -7 9 -20 13
-28 10 -9 -3 -19 -1 -22 6 -9 14 -1 49 11 49 5 0 9 5 9 12 0 9 -3 9 -12 0 -15
-15 -28 -16 -28 -2 0 6 -9 20 -19 31 -14 15 -25 19 -43 14 -21 -7 -21 -6 -9 9
8 9 20 15 28 12 7 -3 13 1 13 8 0 18 -42 29 -51 14 -6 -9 -12 -8 -24 2 -15 12
-15 14 0 22 20 12 9 31 -14 23 -37 -11 -47 34 -11 48 11 4 9 6 -6 6 -22 1
-136 60 -119 62 11 1 -25 17 -40 18 -5 1 -15 -11 -22 -25 -10 -22 -10 -25 3
-20 7 3 14 1 14 -3 0 -5 -8 -12 -17 -16 -17 -6 -17 -7 0 -16 14 -9 16 -14 6
-25 -9 -11 -6 -18 15 -35 14 -11 25 -26 23 -32 -1 -7 9 -13 23 -15 14 -2 31
-12 38 -22 13 -22 3 -27 -16 -8 -15 15 -27 4 -16 -14 5 -7 9 -15 10 -18 0 -3
6 -18 13 -34 7 -17 10 -46 9 -65 -3 -30 -9 -36 -35 -43 -26 -7 -39 -3 -80 25
-27 18 -59 43 -71 55 -13 13 -34 22 -51 22 -16 0 -31 3 -33 8 -1 4 -23 17 -48
30 -35 18 -60 22 -110 21 -36 -1 -87 3 -115 9 -32 6 -52 6 -56 0 -3 -5 -9 -3
-12 6 -5 11 -14 14 -35 10 -17 -4 -41 0 -58 9 -46 23 -105 31 -115 15 -6 -9
-9 -6 -9 10 0 19 -4 21 -25 16 -14 -3 -36 -7 -50 -8 -14 0 -27 -7 -30 -15 -3
-9 0 -11 10 -7 23 8 18 -10 -10 -38 -14 -14 -22 -31 -19 -40 4 -11 -6 -18 -38
-27 -24 -6 -56 -17 -73 -24 -52 -22 -85 -27 -86 -13 -1 7 -3 24 -4 37 -3 27 1
33 65 100 60 63 90 81 133 83 25 1 37 6 40 19 7 28 -4 154 -14 157 -5 2 -9 17
-9 33 0 18 -4 28 -10 24 -5 -3 -10 3 -10 15 0 11 -8 24 -17 27 -10 4 -26 16
-35 28 -16 19 -17 19 -18 1 0 -12 -5 -16 -16 -12 -9 3 -18 6 -20 6 -2 0 -4 9
-4 19 0 29 30 35 55 11 12 -11 25 -17 28 -13 13 12 7 23 -12 23 -10 0 -21 7
-25 15 -3 8 -12 12 -21 9 -10 -4 -15 0 -15 10 0 17 35 22 45 6 3 -5 12 -7 20
-4 10 4 18 -3 25 -20 11 -31 20 -34 20 -7 0 11 -18 38 -39 60 -32 33 -36 42
-25 52 20 16 17 27 -8 32 -21 4 -21 4 3 6 24 1 38 18 52 62 4 12 14 15 34 13
26 -4 26 -4 6 5 -29 13 -29 19 2 31 19 7 25 17 25 40 0 20 5 30 15 30 9 0 15
-9 15 -22 0 -13 4 -29 9 -37 7 -11 13 -9 29 7 11 11 18 23 15 26 -3 3 -7 21
-9 41 -2 25 2 35 12 35 8 0 14 -7 12 -16 -2 -10 3 -19 11 -22 10 -3 13 2 9 22
-4 18 -1 26 9 26 9 0 12 7 7 25 -4 17 -2 25 7 25 18 0 62 47 55 58 -3 5 6 19
19 30 14 12 25 25 25 29 0 15 52 33 69 23 10 -5 30 -7 47 -5 16 2 36 -4 46
-12 10 -9 27 -16 39 -17 12 0 27 -10 33 -21 6 -11 18 -25 26 -32 11 -9 12 -12
2 -13 -10 0 -10 -4 2 -16 9 -8 16 -20 16 -25 0 -5 9 -9 20 -9 12 0 29 -15 44
-39 14 -22 34 -45 45 -53 11 -8 25 -26 32 -41 14 -31 29 -35 36 -9 4 18 60 46
67 34 2 -4 0 -16 -5 -27 -6 -17 -8 -17 -8 -2 -1 9 -5 17 -9 17 -14 0 -10 -33
5 -48 7 -7 13 -19 13 -25 0 -7 -4 -6 -11 3 -8 12 -10 12 -7 -5 2 -13 14 -21
36 -26 34 -7 40 -1 20 19 -9 9 -7 12 9 12 12 0 28 -7 37 -15 8 -8 24 -15 35
-15 11 0 23 -5 26 -10 4 -6 11 -8 16 -5 5 4 12 -2 16 -11 6 -16 7 -16 14 2 7
19 7 19 15 -1 10 -24 29 -45 42 -45 5 0 16 -10 25 -23 8 -13 35 -29 58 -37 24
-7 49 -16 54 -19 6 -3 20 -4 32 -2 17 2 21 -2 17 -12 -4 -11 5 -15 38 -15 62
-2 78 6 78 34 0 14 -4 22 -10 19 -5 -3 -10 -2 -10 3 0 5 19 7 43 5 30 -4 48
-1 58 9 8 8 23 18 34 22 l20 8 -20 8 c-14 6 -15 9 -4 9 8 1 19 -3 25 -9 13
-13 54 -1 54 15 0 7 -5 15 -11 17 -7 2 1 12 16 22 30 20 45 15 25 -9 -7 -8 -8
-15 -4 -15 5 0 15 9 22 20 7 11 17 20 24 20 6 0 24 14 39 31 21 23 34 30 50
26 19 -5 21 -2 17 24 -5 35 21 64 52 56 11 -3 22 -1 25 3 3 5 20 4 37 -1 17
-5 34 -6 37 -4 2 3 1 5 -2 5 -4 0 2 9 13 20 11 11 17 26 14 35 -4 8 0 25 9 38
9 14 11 30 6 44 -6 17 -5 21 7 16 22 -8 16 13 -8 30 l-23 16 28 0 c24 1 26 3
17 20 -8 16 -6 22 6 29 23 13 2 50 -34 58 -15 4 -32 11 -39 16 -16 12 -34 1
-27 -16 3 -8 1 -16 -4 -20 -5 -3 -7 5 -6 17 1 12 3 28 3 35 1 7 6 10 11 7 19
-12 32 7 13 20 -13 10 -20 10 -25 2 -12 -19 -10 11 3 35 10 18 8 19 -11 13
-14 -4 -28 -1 -39 9 -10 9 -25 14 -35 10 -18 -7 -21 -20 -6 -29 6 -3 10 -17
10 -30 0 -13 6 -25 13 -28 6 -2 -6 -3 -28 -2 -55 3 -59 4 -52 12 4 3 -25 17
-65 30 -40 13 -75 28 -78 33 -3 6 -41 13 -83 16 -43 4 -80 11 -83 15 -3 5 -32
9 -64 9 -44 0 -58 3 -56 14 4 30 30 48 62 44 24 -3 30 0 26 11 -4 10 -1 12 7
6 10 -5 11 -2 6 14 -5 16 -2 21 12 21 22 -1 53 -23 53 -39 0 -6 5 -11 11 -11
5 0 7 5 4 10 -7 12 42 33 56 24 6 -3 16 0 24 6 12 10 18 10 30 0 8 -7 22 -10
30 -6 20 7 19 -4 -1 -19 -13 -9 -14 -16 -6 -31 9 -15 11 -16 12 -3 0 15 10 19
53 20 9 0 17 6 17 12 0 8 3 9 8 1 15 -23 132 -48 117 -25 -3 5 3 12 12 14 10
3 0 5 -22 6 -29 1 -36 4 -25 11 8 5 11 12 7 16 -11 11 23 43 39 37 9 -3 14 2
14 16 0 23 15 28 24 9 3 -7 3 -1 -1 15 -4 21 -2 26 10 21 8 -3 18 -1 21 5 8
12 -22 43 -34 36 -5 -3 -20 0 -35 7 l-26 12 32 13 c40 17 49 16 49 -2 0 -8 7
-15 16 -15 8 0 12 5 9 10 -4 6 -1 18 7 27 11 14 10 16 -12 10 -20 -5 -26 -2
-27 12 -1 14 4 17 25 14 l27 -4 -25 18 c-14 10 -37 31 -51 46 -17 18 -31 25
-42 21 -10 -4 -19 0 -23 9 -3 9 -12 13 -19 11 -7 -3 -16 -1 -20 5 -3 6 1 11 9
11 9 0 16 7 16 15 0 8 -7 15 -15 15 -8 0 -15 -4 -15 -10 0 -5 -5 -10 -11 -10
-6 0 -9 6 -6 13 3 8 -3 20 -13 27 -11 8 -17 17 -14 21 7 12 -34 21 -67 14 -22
-5 -36 -2 -49 10 -10 9 -21 12 -24 7 -3 -5 -28 -6 -61 0 -58 9 -200 -4 -233
-20 -9 -5 -28 -8 -42 -7 -14 1 -35 -2 -47 -6 -17 -6 -21 -5 -17 6 4 11 -1 13
-22 9 -15 -3 -32 -8 -38 -11 -5 -4 -32 -8 -60 -9 -70 -4 -99 -8 -111 -15 -22
-12 -65 -9 -65 6 0 25 -18 26 -46 1 -23 -19 -32 -21 -46 -12 -15 9 -21 8 -28
-4 -7 -12 -13 -12 -27 -4 -10 6 -27 8 -38 3 -11 -4 -14 -8 -7 -8 8 -1 6 -7 -5
-20 -18 -18 -19 -18 -51 0 -38 22 -84 27 -64 7 17 -17 15 -29 -3 -22 -9 4 -15
0 -15 -9 0 -13 -4 -13 -25 -4 -29 14 -31 23 -8 36 10 5 15 13 11 16 -4 4 -13
2 -20 -4 -7 -7 -22 -18 -33 -25 -16 -12 -17 -16 -6 -30 8 -9 11 -20 7 -24 -4
-4 -14 2 -22 12 -14 19 -14 19 -14 -2 0 -12 5 -22 12 -22 6 0 9 -2 6 -5 -11
-11 -57 7 -52 20 9 24 -17 28 -40 6 -29 -27 -34 -26 -29 3 5 22 1 26 -31 31
-20 4 -36 10 -36 14 0 3 -9 12 -21 19 -15 10 -24 10 -34 2 -8 -7 -20 -8 -26
-4 -8 4 -9 3 -5 -4 4 -7 1 -12 -8 -12 -9 0 -16 4 -16 10 0 5 -12 8 -27 6 -16
-2 -22 -1 -15 1 20 7 14 40 -8 46 -17 4 -20 2 -14 -15 5 -18 3 -20 -12 -13
-11 4 -25 8 -31 8 -7 0 -13 4 -13 9 0 5 -9 7 -19 3 -14 -4 -23 0 -31 15 -12
23 -35 27 -43 7 -5 -14 -34 -16 -54 -4 -7 4 -16 0 -21 -8 -8 -15 -10 -15 -21
-1 -8 9 -20 16 -27 16 -8 0 -14 5 -14 10 0 6 -6 10 -14 10 -8 0 -21 9 -29 21
-9 12 -18 16 -21 10 -4 -5 -2 -12 4 -16 5 -3 10 -11 10 -16 0 -16 -83 -2 -96
16 -8 11 -14 13 -19 5 -8 -13 -155 -10 -155 3 0 5 -10 1 -22 -7 -28 -20 -52
-21 -45 -2 4 9 -3 16 -19 19 -14 2 -24 -1 -24 -7 0 -7 -3 -7 -8 -1 -4 6 -16
12 -27 13 -11 2 -21 8 -23 13 -5 12 -52 11 -90 -2 -17 -6 -37 -8 -44 -6 -8 4
-4 8 10 12 28 9 29 25 0 25 -21 0 -20 2 9 33 33 35 53 68 53 89 0 10 -2 10 -9
-1 -5 -8 -11 -9 -15 -3 -10 16 19 33 52 30 30 -2 76 27 67 42 -2 3 3 19 10 34
8 16 12 32 9 37 -11 18 12 8 26 -11 16 -23 42 -27 34 -6 -3 7 2 16 10 19 9 4
16 13 16 22 0 18 12 19 29 3 10 -11 15 -10 25 5 7 9 22 17 32 18 14 1 12 3 -6
8 -31 9 -40 41 -11 41 11 0 23 5 27 12 5 8 10 6 15 -8 7 -18 8 -17 8 3 1 12
-3 25 -9 28 -14 9 -12 35 3 35 7 0 13 8 13 19 0 11 -5 17 -13 14 -7 -3 -13 -9
-13 -14 0 -5 -16 -9 -35 -9 -19 0 -35 4 -35 10 0 5 7 7 16 3 12 -4 15 -2 12 8
-3 8 -13 16 -24 17 -10 2 -23 9 -29 14 -7 8 -5 9 7 5 11 -4 28 5 49 23 17 17
35 28 39 25 5 -3 11 -1 15 5 3 5 -2 10 -12 11 -15 0 -14 2 4 11 17 8 28 7 48
-6 14 -9 25 -21 25 -26 0 -6 5 -10 11 -10 5 0 7 5 4 10 -4 6 -2 17 4 24 6 7 9
20 5 29 -3 8 0 18 5 22 6 3 9 11 6 16 -4 5 4 9 16 9 18 0 20 2 9 15 -7 9 -16
12 -19 7 -3 -5 -19 -12 -35 -16 -23 -6 -27 -4 -23 8 5 11 0 16 -14 16 -16 0
-19 4 -14 18 4 9 10 25 12 35 3 10 12 16 19 13 10 -4 14 3 14 19 0 15 -6 25
-14 25 -7 0 -16 9 -19 20 -4 16 -2 18 13 10 11 -6 26 -5 43 3 21 10 25 17 20
39 -3 17 -1 28 6 28 6 0 11 -7 11 -16 0 -10 6 -14 15 -10 8 3 15 1 15 -4 0 -6
5 -10 12 -10 6 0 9 3 5 6 -7 8 17 34 32 34 6 0 11 9 11 20 0 11 -6 20 -14 20
-8 0 -16 6 -19 13 -3 8 -13 4 -31 -12 l-26 -24 0 27 c0 14 6 29 14 32 8 3 17
12 20 20 4 11 2 12 -14 4 -23 -12 -40 -13 -40 -1 0 5 11 12 25 15 14 4 25 12
25 18 0 7 7 3 15 -9 8 -12 13 -27 10 -35 -3 -8 3 -13 17 -14 13 0 29 -2 37 -5
7 -2 16 2 18 9 3 6 0 12 -7 12 -12 0 -59 50 -60 64 0 4 11 6 24 4 17 -4 26 0
29 13 3 9 24 26 48 37 36 17 39 21 21 24 -16 2 -19 7 -12 18 8 12 13 11 39 -8
32 -23 42 -27 39 -14 -4 19 17 42 38 42 25 0 33 23 13 35 -17 11 -4 30 22 31
13 1 44 4 69 8 25 3 39 3 33 0 -21 -9 -15 -21 14 -27 26 -5 53 11 53 32 0 10
-16 15 -47 14 -6 0 -11 8 -10 18 1 9 5 15 10 12 4 -2 14 0 22 7 9 8 15 8 20 0
5 -8 11 -8 21 1 11 9 17 9 28 0 11 -10 16 -8 20 7 7 20 52 35 71 24 5 -3 36
-7 67 -7 54 -1 58 0 52 19 -4 17 -3 18 5 6 6 -8 11 -11 11 -6 0 5 7 3 15 -4 9
-8 13 -21 9 -36 -5 -18 -1 -26 12 -31 11 -3 23 -11 27 -17 5 -7 7 -2 4 10 -4
17 -1 20 15 16 10 -2 27 3 38 13 13 12 24 14 35 8 22 -13 75 -4 75 13 0 7 6
11 13 8 8 -3 27 0 43 6 l29 10 -25 -21 -25 -21 25 3 c14 2 27 7 30 11 3 4 15
5 27 2 14 -4 20 -12 18 -25 -4 -19 6 -25 19 -12 3 4 15 8 26 10 25 4 16 -24
-11 -32 -15 -5 -17 -10 -10 -19 6 -7 7 -17 3 -21 -4 -5 1 -5 11 -2 10 4 23 7
29 7 6 0 6 6 -2 15 -9 11 -9 17 1 28 9 10 25 11 63 5 28 -5 59 -9 68 -9 10 0
20 -4 23 -10 4 -5 14 -5 27 2 19 10 20 9 15 -10 -5 -19 -1 -21 39 -21 34 0 54
-7 78 -26 36 -29 91 -41 111 -24 9 8 11 4 8 -17 l-5 -28 19 23 c27 33 68 22
71 -18 2 -24 -2 -29 -28 -35 -17 -4 -27 -11 -24 -17 4 -6 10 -6 17 1 6 6 22
11 35 11 20 0 23 -4 19 -21 -5 -20 -3 -21 43 -15 29 4 51 2 55 -4 3 -5 17 -7
30 -4 13 3 32 1 42 -6 15 -9 12 -10 -16 -4 -25 5 -32 3 -29 -7 3 -9 21 -12 58
-10 35 2 55 -2 61 -10 11 -18 -8 -39 -29 -32 -14 4 -14 3 -3 -5 8 -6 21 -8 29
-4 10 3 13 1 8 -6 -4 -8 3 -16 19 -22 20 -8 25 -15 20 -29 -3 -11 -1 -22 5
-26 5 -3 10 -15 10 -26 0 -22 4 -23 28 -8 14 9 24 5 50 -20 29 -26 32 -33 22
-52 -11 -20 -10 -21 22 -15 18 3 27 3 21 0 -20 -9 -15 -27 5 -22 10 3 26 0 36
-7 16 -12 14 -14 -13 -20 -17 -4 -29 -10 -26 -15 3 -4 14 -6 25 -3 11 3 20 0
20 -6 0 -6 -8 -11 -17 -11 -14 0 -12 -4 7 -22 21 -20 22 -23 7 -26 -21 -4 -23
-22 -2 -22 8 0 15 -7 15 -15 0 -8 8 -15 19 -15 22 0 36 -39 20 -55 -7 -7 -10
-5 -7 7 3 17 1 18 -27 18 -20 0 -20 -53 -1 -70 8 -6 12 -18 10 -25 -4 -9 0
-12 13 -9 10 2 24 0 32 -5 11 -7 9 -13 -8 -30 -27 -27 -27 -51 -1 -51 11 0 20
-4 20 -9 0 -6 -12 -6 -30 0 -16 6 -37 8 -47 6 -15 -4 -14 -6 7 -13 l25 -8 -25
-8 c-18 -5 -14 -6 13 -2 28 4 37 1 37 -10 0 -8 8 -20 18 -25 14 -9 13 -10 -10
-11 -18 0 -28 -5 -28 -15 0 -8 8 -15 17 -15 13 0 14 -3 5 -12 -7 -7 -12 -19
-11 -27 0 -11 2 -12 6 -3 2 6 11 12 19 12 12 0 13 -4 2 -22 -7 -13 -11 -26
-10 -30 1 -5 -2 -8 -8 -8 -5 0 -10 -5 -10 -11 0 -7 11 -8 30 -4 23 5 30 3 30
-8 0 -11 -11 -14 -50 -12 -61 3 -66 -11 -7 -20 42 -7 84 -24 60 -25 -18 0 -16
-21 4 -35 9 -7 16 -25 15 -43 0 -20 6 -36 16 -42 11 -6 13 -13 7 -17 -18 -14
-16 -35 4 -40 12 -3 21 -17 25 -38 4 -19 10 -35 15 -37 5 -2 12 -18 16 -35 5
-26 3 -33 -9 -33 -9 0 -16 -4 -16 -10 0 -5 6 -10 13 -10 21 0 39 -47 27 -70
-6 -12 -6 -20 0 -22 5 -2 11 -12 13 -23 2 -11 7 -27 10 -35 11 -29 14 -70 6
-70 -14 0 -10 -30 5 -36 10 -4 12 -23 10 -74 -1 -40 2 -73 8 -76 7 -4 6 -9 -2
-14 -9 -6 -8 -14 3 -36 8 -16 15 -40 15 -54 1 -40 9 -94 17 -112 3 -9 2 -25
-4 -36 -6 -11 -6 -23 -1 -28 5 -5 12 -41 15 -79 3 -39 7 -83 10 -100 18 -128
22 -290 12 -492 -4 -92 -3 -143 3 -143 6 0 10 -16 10 -35 0 -19 -4 -35 -10
-35 -15 0 -28 -32 -45 -111 -18 -86 -19 -109 -5 -109 16 0 90 71 90 86 0 8 5
14 10 14 14 0 53 67 56 96 3 28 34 73 51 74 7 0 10 7 7 15 -6 13 16 88 37 127
12 24 11 75 -1 83 -6 4 -8 10 -5 15 3 4 -3 25 -13 46 -13 31 -23 40 -47 42
-16 2 -32 6 -34 8 -10 9 56 59 73 56 9 -2 24 5 32 15 13 16 13 16 8 1 -4 -12
-1 -18 9 -18 9 0 22 -25 36 -72 12 -40 24 -79 26 -85 8 -24 44 -14 59 16 9 16
12 32 8 36 -4 5 -1 5 6 1 6 -4 12 -2 12 3 0 6 7 11 15 11 17 0 29 40 20 69 -3
12 0 23 8 28 19 11 33 67 15 61 -9 -4 -14 8 -15 46 -1 28 -12 91 -24 139 -24
99 -41 117 -86 93 -57 -29 -144 -156 -108 -156 10 0 14 -9 11 -30 -2 -16 2
-32 8 -35 6 -3 -4 -3 -21 0 -22 3 -33 0 -34 -8 -1 -6 -4 -2 -7 10 -9 29 -29
13 -61 -50 -13 -26 -28 -47 -33 -47 -5 0 -6 6 -1 12 4 7 8 20 8 28 1 8 5 30 9
48 7 26 12 31 28 26 17 -5 19 -3 13 15 -4 13 -2 21 5 21 6 0 18 7 26 15 9 8
12 15 7 15 -4 0 3 7 15 16 13 9 22 26 22 40 0 14 4 23 9 20 8 -5 31 35 31 55
0 6 11 26 25 46 13 20 22 40 19 45 -3 4 -22 8 -42 8 l-37 0 2 53 c2 61 10 87
28 87 7 0 16 7 19 16 3 8 9 13 14 10 4 -2 13 -1 20 3 8 5 8 14 -3 35 -19 36
-19 36 5 36 22 0 22 0 26 50 1 19 7 36 13 38 6 2 7 12 1 28 -7 19 -6 24 5 24
18 0 18 5 4 32 -9 17 -9 20 4 15 20 -8 29 3 16 19 -16 19 -3 61 21 69 26 8 25
19 -5 43 -14 11 -25 25 -25 32 0 10 3 10 15 0 13 -11 19 -9 36 9 11 12 25 18
31 15 7 -4 8 -2 4 4 -4 6 -8 41 -9 77 -3 56 -1 64 13 60 15 -5 17 6 16 100 -1
61 3 105 8 105 6 0 5 5 -1 11 -9 9 -8 15 3 26 19 19 18 24 -11 55 -28 30 -34
48 -10 28 30 -25 44 23 17 54 -16 18 -16 18 5 7 32 -16 35 -14 18 13 -9 13
-15 28 -14 32 3 13 -10 66 -22 87 -7 14 -5 17 11 17 11 0 20 4 20 9 0 14 37
20 49 8 14 -14 14 -6 0 30 -6 15 -12 43 -15 62 -2 18 -7 38 -10 43 -4 5 -8 42
-11 81 -2 39 -9 77 -14 83 -9 11 -17 56 -23 137 -3 37 -17 57 -43 57 -7 0 -13
5 -13 10 0 6 5 10 10 10 6 0 10 7 10 16 0 8 5 12 11 8 24 -14 -11 34 -36 50
-18 12 -24 23 -20 36 4 12 -2 27 -14 39 -12 12 -21 27 -21 35 0 8 -5 16 -11
18 -17 6 2 38 23 38 11 0 16 5 13 10 -4 7 2 9 19 4 42 -10 30 3 -39 41 -36 20
-65 40 -65 45 0 4 -9 10 -21 13 -11 3 -23 15 -26 26 -3 12 -11 21 -18 21 -7 0
-19 7 -26 17 -13 15 -11 16 24 9 22 -4 37 -3 37 3 0 5 -19 14 -42 18 -54 11
-63 33 -13 33 21 0 34 4 30 10 -3 6 -15 10 -26 10 -10 0 -19 4 -19 9 0 5 -28
13 -62 17 -35 5 -67 9 -73 10 -5 1 -20 2 -32 3 -41 2 -24 27 33 50 62 26 57
43 -9 31 -41 -8 -67 -4 -78 13 -4 5 -15 4 -29 -3 -37 -20 -33 -5 10 39 41 42
43 54 2 25 -28 -20 -28 -17 8 51 17 31 30 65 30 74 0 9 4 21 9 26 12 12 23 58
27 110 1 22 3 40 4 40 5 0 7 52 2 63 -3 9 -8 9 -17 2 -15 -12 -25 7 -25 46 0
18 4 23 13 17 46 -29 46 18 -1 115 -24 50 -38 69 -44 60 -11 -18 -30 10 -22
34 2 9 0 20 -7 24 -8 5 -10 -4 -7 -30 5 -44 -4 -46 -31 -7 -23 32 -27 51 -11
51 21 0 8 28 -36 81 -87 103 -163 179 -169 169 -11 -18 -23 -11 -46 28 -13 20
-27 39 -32 41 -9 3 -42 32 -174 149 -67 59 -81 68 -161 106 -30 14 -67 37 -84
51 -16 14 -41 25 -56 25 -14 0 -56 18 -93 40 -37 22 -72 40 -78 40 -5 0 -16 6
-23 13 -7 7 -40 18 -72 24 -33 7 -78 22 -100 34 -44 24 -116 41 -116 29 0 -13
-32 -21 -44 -11 -6 4 -39 11 -73 15 -34 4 -92 15 -130 25 -37 10 -94 19 -126
20 -32 1 -62 2 -65 3 -4 1 -22 -2 -40 -6 -21 -5 -38 -4 -46 3 -11 9 -91 12
-100 4z m-1356 -4335 c1 -20 68 -58 100 -58 20 0 28 -4 24 -13 -3 -8 7 -19 23
-28 15 -7 35 -22 44 -31 20 -22 29 -23 29 -3 0 8 7 15 15 15 8 0 15 -7 15 -16
0 -8 4 -12 10 -9 5 3 7 0 4 -9 -3 -8 -12 -12 -20 -9 -17 6 -18 -6 0 -29 16
-21 30 -24 23 -4 -6 14 10 36 26 36 5 0 6 -7 3 -16 -8 -21 4 -40 15 -23 6 11
11 11 21 1 6 -6 24 -12 38 -12 14 0 31 -5 37 -11 8 -8 19 -6 41 5 29 15 32 15
41 -2 6 -9 11 -12 11 -7 0 6 4 4 9 -4 7 -11 11 -9 20 8 12 22 57 31 46 9 -4
-7 0 -5 8 5 8 9 22 17 31 17 9 0 16 4 16 9 0 5 14 11 31 15 29 6 71 36 50 36
-6 0 -11 5 -11 10 0 11 58 27 75 21 13 -5 51 -9 95 -10 26 -1 31 -4 22 -13
-25 -25 -13 -46 38 -63 29 -10 50 -23 50 -31 0 -8 -4 -14 -9 -14 -5 0 -18 -3
-28 -6 -15 -6 -16 -4 -5 7 14 15 16 33 2 24 -5 -3 -18 0 -29 6 -15 10 -24 9
-45 -4 -14 -9 -40 -18 -58 -18 -22 -1 -26 -3 -13 -6 11 -3 25 -9 32 -15 8 -6
18 -3 32 11 12 12 27 21 34 21 9 0 8 -3 -2 -9 -7 -5 -11 -13 -8 -18 3 -4 -1
-19 -8 -33 -12 -22 -14 -23 -20 -8 -10 26 -25 12 -25 -23 0 -21 -5 -29 -17
-30 -14 0 -13 -2 5 -9 25 -10 30 -40 7 -40 -8 0 -15 -4 -15 -10 0 -5 -7 -10
-15 -10 -8 0 -15 -7 -15 -15 0 -8 6 -15 12 -15 7 0 2 -7 -10 -16 -12 -8 -27
-12 -34 -8 -7 4 -8 3 -4 -4 4 -7 14 -12 22 -12 14 0 20 -25 7 -33 -5 -2 -3 -2
4 -1 23 6 23 -14 0 -20 -18 -5 -20 -8 -7 -16 11 -7 12 -10 2 -10 -8 0 -12 -6
-9 -12 2 -7 11 -12 21 -10 20 4 21 -14 1 -22 -8 -3 -15 -12 -15 -19 0 -8 -11
-19 -25 -25 -25 -11 -34 -32 -15 -32 6 0 10 5 10 11 0 5 5 7 10 4 8 -5 8 -11
1 -19 -6 -7 -8 -16 -4 -20 4 -4 0 -4 -10 0 -14 5 -17 0 -17 -25 0 -19 6 -34
15 -37 8 -4 15 -12 15 -20 0 -7 10 -16 23 -19 39 -10 49 -39 29 -77 -9 -18
-21 -36 -26 -39 -4 -4 2 -13 14 -22 19 -13 20 -16 5 -24 -40 -23 24 -94 69
-77 21 8 20 -8 -3 -37 -10 -14 -17 -36 -15 -51 3 -28 2 -28 -26 -13 -16 8 -35
24 -44 36 -8 12 -19 18 -25 14 -6 -3 -11 -1 -11 4 0 6 -4 11 -10 11 -5 0 -10
-7 -10 -15 0 -16 -27 -19 -79 -9 -22 5 -31 12 -31 26 0 16 -5 19 -29 13 -23
-5 -32 -2 -40 13 -7 13 -7 22 1 30 9 9 5 12 -16 12 -15 0 -25 -4 -21 -10 8
-13 -18 -13 -32 1 -17 17 -96 19 -108 2 -6 -8 -18 -11 -28 -7 -22 8 -22 24 1
24 9 0 23 9 30 20 7 13 8 20 2 20 -20 0 -23 31 -4 45 18 13 18 14 1 21 -28 10
-43 -10 -29 -41 16 -35 15 -46 -3 -39 -8 4 -15 13 -15 21 0 10 -6 12 -20 8
-11 -4 -20 -2 -20 4 0 6 5 11 10 11 6 0 10 9 10 20 0 15 -7 20 -29 20 -16 0
-34 7 -41 15 -7 8 -19 15 -26 15 -7 0 -11 6 -8 14 6 15 -26 32 -35 18 -3 -5
-19 -12 -35 -16 -27 -7 -28 -6 -15 11 8 10 20 24 27 31 18 20 15 32 -8 32 -15
0 -20 7 -20 24 0 29 -15 42 -24 21 -3 -8 -12 -15 -21 -15 -18 0 -20 26 -2 34
11 6 -42 2 -73 -6 -9 -2 -16 6 -18 20 -2 12 -10 22 -18 22 -17 0 -19 17 -1 23
6 2 9 7 6 11 -12 12 -38 -5 -32 -22 3 -10 -4 -7 -15 8 l-21 25 21 8 c37 13 3
32 -54 30 -44 -2 -50 0 -45 16 4 17 -4 24 -93 80 -8 5 -23 12 -33 15 -15 5
-16 9 -7 26 6 11 16 20 23 20 7 0 18 9 25 20 16 26 -5 28 -24 3 -7 -10 -16
-15 -19 -11 -4 4 0 14 9 23 18 19 21 45 5 45 -6 0 -9 -7 -5 -15 3 -9 0 -15 -9
-15 -20 0 -19 37 1 48 8 5 18 27 21 49 5 36 2 43 -18 54 -13 7 -28 14 -34 15
-5 0 -14 2 -19 2 -5 1 -1 11 9 22 16 18 20 19 35 5 15 -14 19 -13 35 5 24 26
52 25 76 -2 12 -16 18 -18 19 -9 0 8 -15 28 -32 44 -18 15 -25 26 -16 23 11
-3 22 2 28 13 15 30 40 34 50 8 8 -20 9 -21 9 -2 1 11 10 26 21 33 11 7 20 19
20 26 0 19 18 24 58 18 25 -4 32 -1 32 12 0 19 20 22 20 4z m2205 -1041 c17
-7 30 -19 30 -27 0 -8 5 -15 12 -15 6 0 15 -3 19 -7 4 -5 -2 -8 -14 -8 -12 0
-22 -4 -22 -10 0 -5 9 -10 20 -10 11 0 20 -4 20 -10 0 -5 7 -10 15 -10 8 0 15
-4 15 -10 0 -5 7 -7 15 -4 16 7 18 3 9 -20 -5 -12 -10 -13 -25 -5 -16 8 -19 6
-20 -11 -3 -39 -5 -45 -16 -43 -7 2 -23 -4 -38 -11 -21 -11 -23 -15 -10 -20 9
-3 21 -4 26 0 18 11 8 -37 -11 -56 -12 -12 -18 -25 -15 -29 2 -5 -2 -12 -11
-15 -25 -10 -34 -7 -34 9 0 18 -17 20 -23 3 -3 -10 -7 -10 -20 1 -26 21 -20
-1 7 -27 13 -12 26 -18 28 -13 1 5 15 7 30 4 32 -6 33 -27 4 -66 -13 -17 -25
-23 -40 -19 -23 5 -56 31 -56 43 0 4 8 10 18 12 13 4 12 5 -5 6 -12 0 -23 -5
-25 -11 -3 -9 -9 -8 -22 5 -10 9 -26 17 -37 17 -16 0 -19 4 -14 22 6 16 4 20
-8 15 -8 -3 -23 0 -33 7 -11 7 -38 18 -61 26 -24 7 -43 17 -43 22 0 5 -5 6
-10 3 -6 -3 -13 1 -16 9 -4 10 -19 16 -40 16 -19 0 -34 5 -34 11 0 7 -9 9 -21
6 -15 -4 -19 -1 -17 11 3 18 64 27 74 10 3 -5 14 -6 24 -3 12 4 19 -1 23 -15
5 -20 6 -20 25 -4 11 9 18 23 15 30 -4 10 27 36 47 39 3 0 15 6 28 13 12 7 32
10 42 7 15 -5 18 -3 14 8 -3 9 2 18 13 21 10 4 25 21 34 39 8 17 33 42 55 54
46 25 41 25 79 10z m-1515 -117 c8 -8 49 -30 55 -30 4 0 3 5 -1 11 -4 7 0 9
13 5 26 -8 53 2 53 21 0 10 5 11 17 5 9 -6 29 -6 46 -1 29 8 29 8 11 -13 -14
-15 -15 -20 -4 -16 21 6 38 -13 32 -36 -14 -53 -65 -70 -149 -51 -27 6 -33 4
-33 -9 0 -19 -26 -22 -33 -3 -3 9 -7 9 -17 1 -15 -15 -58 22 -43 37 6 6 15 4
23 -6 7 -8 22 -15 33 -15 19 0 20 1 2 20 -16 17 -16 20 -2 20 9 0 19 -4 22
-10 10 -17 44 -11 55 9 13 26 13 31 -5 31 -8 0 -15 -7 -15 -15 0 -18 -5 -18
-31 -4 -11 5 -17 14 -14 20 4 5 -1 9 -9 9 -9 0 -16 -7 -16 -15 0 -8 -4 -15
-10 -15 -5 0 -10 7 -10 15 0 8 5 15 10 15 6 0 5 8 -2 20 -12 20 -13 19 -18
-12 -4 -24 -10 -33 -24 -33 -11 0 -21 7 -23 15 -4 12 -3 12 5 1 7 -9 12 -10
16 -2 11 17 -2 30 -24 24 -11 -3 -20 0 -20 6 0 6 7 11 15 11 8 0 15 8 15 18 0
39 17 33 80 -28z m1475 -1086 c21 8 19 -20 -1 -32 -26 -15 -8 -33 21 -22 18 7
24 6 22 -3 -1 -7 6 -11 16 -9 10 2 27 -7 38 -20 14 -16 22 -19 25 -10 7 15 30
16 39 2 4 -6 1 -18 -7 -27 -12 -14 -9 -15 23 -9 28 5 39 2 52 -12 16 -18 16
-20 -9 -45 -14 -15 -35 -29 -45 -32 -24 -8 -24 -20 1 -47 26 -28 19 -34 -19
-15 -33 17 -36 13 -31 -36 1 -14 -4 -16 -23 -12 -27 7 -77 -18 -77 -39 0 -6
-11 -11 -25 -11 -14 0 -25 3 -25 8 0 4 -9 7 -20 7 -11 0 -20 4 -20 10 0 5 -7
7 -15 4 -8 -4 -15 -1 -15 6 0 7 8 10 20 7 14 -3 30 3 47 19 25 24 60 34 48 14
-3 -5 -1 -10 4 -10 16 0 14 8 -10 41 -11 16 -27 29 -36 29 -13 0 -13 3 -3 15
7 9 8 15 2 15 -13 0 -42 -62 -42 -90 0 -12 -4 -18 -10 -15 -6 4 -18 1 -26 -6
-16 -13 -24 -9 -28 13 -6 38 -20 46 -66 38 -25 -5 -56 -12 -70 -16 -24 -7 -24
-7 -7 10 9 10 17 22 17 28 0 5 10 22 22 36 11 15 18 19 15 10 -3 -10 0 -19 10
-22 9 -4 17 1 20 14 6 22 11 24 33 10 13 -9 13 -10 0 -10 -11 -1 -11 -3 3 -11
24 -14 31 -6 17 21 -10 18 -9 22 9 27 12 3 21 12 21 19 0 8 11 14 26 14 14 0
37 9 51 20 16 12 20 20 11 20 -8 0 -19 -5 -25 -11 -7 -7 -22 -13 -35 -14 -37
-4 -38 -4 -38 -20 0 -8 -4 -15 -10 -15 -12 0 -12 7 -1 47 6 20 6 35 0 38 -5 4
-9 11 -9 17 0 7 17 8 51 4 44 -6 49 -5 37 7 -7 8 -15 14 -18 12 -3 -2 -6 8 -6
20 -2 26 22 38 43 22 7 -5 20 -7 28 -3z"/>
<path d="M4793 5885 c-7 -8 -13 -21 -13 -30 0 -9 -6 -15 -12 -13 -13 5 -38
-14 -38 -29 0 -8 -56 -103 -99 -167 -37 -56 -207 -223 -259 -255 -7 -4 -12
-14 -10 -21 2 -8 -2 -14 -9 -15 -7 0 -18 -6 -25 -14 -11 -12 -11 -13 1 -6 9 5
12 4 7 -3 -4 -7 -14 -12 -21 -12 -9 0 -12 -6 -9 -15 4 -8 10 -12 15 -9 5 3 9
-2 9 -11 0 -11 -5 -15 -14 -12 -10 4 -13 1 -9 -8 3 -8 9 -12 14 -9 5 3 9 0 9
-6 0 -6 4 -9 9 -6 5 4 17 3 27 -1 17 -6 17 -7 0 -13 -16 -5 -16 -8 7 -30 14
-13 23 -30 20 -37 -3 -7 2 -13 10 -13 8 0 17 -9 20 -20 3 -12 14 -20 27 -20
22 0 22 0 -4 26 -27 28 -33 49 -16 59 17 11 42 -15 30 -30 -11 -14 5 -33 17
-21 3 3 12 1 20 -5 10 -9 13 -8 13 4 0 10 8 15 23 13 33 -3 47 -14 40 -31 -3
-8 0 -15 7 -15 8 0 10 9 6 25 -7 29 16 45 63 45 21 0 31 5 31 15 0 8 4 15 9
15 5 0 14 -7 21 -15 20 -25 41 -19 34 9 -4 18 0 31 17 48 16 17 20 19 16 6 -4
-12 -1 -18 8 -18 8 0 15 -4 15 -10 0 -5 5 -10 11 -10 5 0 8 4 5 9 -3 5 9 11
27 14 36 5 48 0 28 -12 -10 -6 -10 -10 -2 -16 7 -4 23 1 37 10 18 12 29 13 38
6 7 -6 16 -7 21 -3 4 4 6 0 3 -8 -6 -21 27 -54 44 -44 7 5 22 10 33 11 19 3
19 2 -2 -16 l-23 -19 25 -16 c24 -16 25 -15 25 4 0 18 3 19 20 8 10 -7 21 -24
23 -38 4 -25 4 -25 6 3 0 15 5 27 11 27 5 0 7 -6 4 -13 -3 -8 2 -20 11 -27 13
-11 18 -11 25 -1 5 9 10 10 14 2 4 -6 4 -16 1 -22 -4 -6 2 -13 14 -16 12 -3
21 -11 21 -18 0 -7 9 -15 20 -18 11 -3 20 -9 19 -14 -3 -20 2 -34 11 -28 6 4
10 -6 10 -24 0 -23 5 -30 23 -33 12 -2 26 -13 32 -25 8 -20 35 -33 35 -18 0
14 -31 65 -39 65 -5 0 -14 14 -20 31 -7 22 -15 29 -26 25 -11 -4 -15 1 -15 20
0 13 -7 27 -15 30 -8 4 -15 16 -15 29 0 13 -7 25 -15 29 -8 3 -15 10 -15 16 0
6 -11 21 -25 34 -14 13 -32 40 -40 60 -8 20 -20 36 -25 36 -6 0 -10 6 -10 14
0 31 -53 108 -81 118 -25 9 -29 15 -29 47 0 20 -7 47 -16 60 -12 16 -13 26 -6
33 11 11 -10 66 -28 78 -15 10 -90 159 -90 178 0 24 -38 112 -48 112 -4 -1
-13 -7 -19 -15z"/>
<path d="M7351 5859 c-14 -40 -14 -82 -1 -74 15 9 12 -8 -5 -31 -8 -10 -15
-26 -15 -35 0 -9 -7 -19 -15 -23 -8 -3 -15 -14 -15 -25 0 -11 -5 -23 -11 -26
-6 -4 -8 -13 -5 -21 3 -8 2 -14 -2 -14 -4 0 -7 -20 -7 -45 0 -25 3 -45 8 -45
19 0 4 -20 -15 -21 -17 -1 -19 -2 -6 -6 16 -4 16 -8 4 -38 -16 -37 -12 -71 10
-79 12 -5 12 -9 2 -25 -14 -23 -11 -28 17 -33 14 -2 21 3 23 19 2 15 13 24 35
28 18 4 38 12 45 17 9 8 12 5 12 -11 0 -15 -6 -21 -21 -21 -11 0 -18 -4 -15
-9 9 -14 55 0 58 17 3 14 5 13 21 -2 9 -10 17 -13 17 -7 0 17 38 13 48 -5 6
-10 12 -13 16 -6 3 6 -1 17 -9 25 -19 20 -19 27 0 27 9 0 18 -7 21 -15 4 -9
19 -15 40 -15 19 0 34 -5 34 -10 0 -6 -10 -8 -24 -4 -13 3 -26 1 -30 -4 -7
-12 44 -23 73 -15 12 3 21 13 21 24 0 11 6 22 13 25 24 9 3 114 -22 114 -5 0
-12 12 -15 26 -5 18 -12 24 -22 20 -9 -3 -14 -1 -13 7 3 19 -11 46 -68 130
-29 43 -53 80 -53 83 0 15 -47 74 -60 74 -8 0 -25 14 -36 31 l-22 30 -11 -32z"/>
<path d="M2228 1883 c-10 -3 -18 -9 -18 -14 0 -5 -6 -9 -12 -9 -12 0 -88 -77
-88 -89 0 -8 127 -71 144 -71 20 0 23 16 22 92 -2 72 -16 98 -48 91z"/>
<path d="M1679 1548 c-4 -69 -3 -75 9 -71 6 3 12 0 12 -6 0 -6 9 -11 19 -11
11 0 23 -4 26 -10 4 -6 -5 -10 -20 -10 -22 0 -26 -4 -23 -22 2 -18 8 -22 27
-20 19 3 22 0 17 -13 -3 -9 -6 -21 -6 -26 0 -6 -4 -7 -10 -4 -17 11 -11 -20 8
-36 9 -9 22 -25 28 -35 7 -10 15 -16 20 -11 4 4 -1 14 -12 22 -18 14 -16 14
16 9 19 -4 40 -13 47 -21 7 -9 13 -11 18 -4 3 6 1 11 -4 11 -6 0 -11 5 -11 11
0 6 7 9 15 5 8 -3 15 -1 15 4 0 6 -5 10 -12 10 -9 0 -9 3 0 12 7 7 12 21 12
33 -1 19 -1 19 -20 -4 l-20 -23 0 27 c0 27 -33 64 -57 65 -7 0 -13 5 -13 11 0
5 5 7 10 4 6 -3 10 1 10 9 0 15 -11 20 -37 17 -8 -1 -13 10 -13 26 -1 30 -20
63 -39 63 -6 0 -11 -6 -12 -12z"/>
<path d="M9536 1275 c-3 -8 -1 -17 4 -20 10 -6 2 -36 -12 -46 -5 -3 -10 -18
-12 -32 -1 -15 -5 -30 -9 -33 -3 -3 -3 -12 0 -20 3 -8 0 -14 -6 -14 -6 0 -11
-5 -11 -11 0 -6 9 -9 20 -6 11 3 18 1 14 -4 -3 -5 -12 -9 -19 -9 -22 0 -37
-34 -22 -50 9 -10 9 -11 0 -6 -8 5 -13 1 -13 -9 0 -10 5 -13 11 -9 7 4 2 -6
-9 -22 -11 -16 -35 -85 -52 -154 -18 -69 -40 -154 -50 -190 -35 -119 -71 -280
-79 -348 -4 -37 -9 -71 -11 -77 -13 -48 14 -44 34 5 18 46 20 64 6 55 -5 -3
-10 -2 -10 3 0 6 12 13 26 16 14 4 24 12 21 19 -2 7 3 18 12 25 9 8 11 11 6 8
-6 -2 -17 -1 -25 5 -12 7 -10 9 7 9 21 0 53 46 53 76 0 7 4 14 8 16 5 1 24 23
43 48 38 50 75 94 103 123 15 16 16 21 5 28 -11 7 -10 11 6 24 20 15 20 16 -2
31 -13 9 -23 26 -22 38 0 20 1 21 9 1 7 -17 9 -17 9 -2 1 9 6 17 13 17 9 0 9
3 1 11 -8 8 -17 8 -33 -1 -12 -6 -24 -9 -28 -6 -3 3 0 6 7 6 7 0 11 7 8 15 -4
8 -2 17 3 20 19 12 10 26 -9 15 -12 -6 -22 -6 -25 -1 -4 5 0 12 6 14 10 4 10
6 1 6 -7 1 -10 8 -6 18 5 12 2 15 -10 10 -14 -5 -15 -1 -10 26 3 18 12 42 20
54 10 15 11 23 3 28 -8 5 -7 11 1 22 10 12 10 16 -2 24 -11 7 -11 9 4 9 11 0
17 8 17 25 0 14 3 25 8 25 4 0 6 19 5 42 0 23 4 53 10 67 16 40 17 72 2 87
-11 11 -14 11 -19 -1z"/>
<path d="M1797 1252 c-16 -7 -16 -9 -2 -30 9 -12 23 -22 32 -22 13 0 13 -3 3
-15 -8 -10 -9 -15 -2 -15 19 0 2 -28 -21 -34 -21 -6 -21 -7 -4 -20 9 -7 17
-18 17 -25 0 -6 5 -11 10 -11 6 0 10 6 10 14 0 35 15 21 16 -15 1 -21 -2 -36
-7 -33 -5 3 -6 -2 -3 -10 9 -23 44 -1 44 27 1 21 1 21 12 3 8 -15 8 -21 0 -24
-17 -5 -15 -33 3 -46 14 -10 14 -15 0 -49 -8 -20 -12 -37 -9 -37 4 0 1 -7 -6
-15 -10 -13 -9 -15 11 -15 23 -1 23 -1 5 -15 -19 -15 -19 -15 2 -15 12 0 22
-5 22 -11 0 -6 -7 -9 -15 -5 -12 4 -14 0 -9 -22 4 -15 11 -30 17 -33 5 -4 7
-12 3 -18 -5 -7 -1 -9 8 -5 22 8 20 34 -1 34 -15 0 -16 2 -3 10 24 16 40 12
40 -10 0 -11 7 -20 15 -20 8 0 15 5 15 12 0 6 2 9 5 6 3 -3 1 -17 -5 -32 l-10
-27 25 18 c20 15 24 27 25 66 0 26 -4 47 -10 47 -5 0 -10 11 -10 24 0 14 -5
28 -11 32 -8 4 -7 9 2 15 10 6 11 9 2 9 -7 0 -13 10 -13 23 0 18 -2 19 -10 7
-9 -13 -13 -12 -28 6 -10 12 -28 25 -41 29 -17 5 -20 10 -11 20 6 8 19 11 28
8 15 -4 15 -3 2 7 -11 9 -12 13 -2 17 17 7 15 21 -5 26 -14 4 -12 5 5 6 12 1
22 7 22 16 0 18 -5 18 -31 5 -16 -9 -19 -7 -19 10 0 12 5 18 10 15 6 -3 10 0
10 8 0 14 -27 16 -47 4 -16 -10 -28 12 -15 25 12 12 -1 46 -22 60 -7 5 -6 8 4
8 13 0 13 1 0 10 -17 11 -28 11 -53 2z"/>
<path d="M2243 686 c-27 -13 -38 -36 -18 -36 8 0 15 -7 15 -15 0 -18 -21 -20
-39 -2 -11 10 -13 9 -8 -5 8 -23 -2 -48 -19 -48 -8 0 -11 6 -8 15 8 20 -20 20
-39 0 -8 -8 -18 -11 -22 -7 -4 4 -4 -9 0 -28 4 -24 1 -41 -9 -55 -14 -18 -15
-18 -16 -2 0 9 5 17 10 17 6 0 10 5 10 11 0 5 -4 7 -10 4 -16 -10 -11 42 6 59
23 24 13 39 -14 21 -16 -12 -21 -22 -16 -41 5 -19 2 -24 -13 -24 -10 0 -24 -5
-31 -12 -9 -9 -12 -6 -12 13 0 15 -10 34 -22 45 l-23 19 19 -22 c10 -12 16
-31 14 -41 -3 -11 2 -23 13 -30 10 -7 16 -18 14 -25 -3 -6 8 -27 25 -45 17
-19 28 -37 25 -42 -3 -4 6 -15 20 -24 15 -10 25 -12 25 -6 0 6 4 9 9 6 5 -4 7
14 5 39 l-4 45 22 -23 c13 -12 20 -24 16 -27 -4 -3 -11 -18 -17 -33 -6 -15
-17 -27 -26 -27 -12 0 -13 -3 -3 -19 10 -16 16 -18 32 -9 17 9 19 8 9 -3 -14
-14 -18 -43 -5 -35 4 2 16 -3 27 -11 16 -13 17 -15 3 -10 -25 9 -22 -5 7 -37
14 -15 32 -39 40 -54 8 -15 25 -40 37 -57 13 -16 38 -51 57 -77 l35 -48 83 0
83 0 -6 43 c-3 23 -10 53 -15 67 -9 25 -40 162 -44 190 -1 8 -4 22 -8 30 -3 8
-15 49 -25 90 -11 41 -30 109 -42 150 -12 41 -23 80 -24 85 -1 6 -7 19 -14 30
-10 17 -13 18 -21 6 -8 -12 -14 -13 -36 -3 -14 7 -27 11 -28 11 -1 -1 -12 -6
-24 -13z"/>
</g>
</svg>
